<svg width="15" height="17" viewBox="0 0 15 17" fill="none" xmlns="http://www.w3.org/2000/svg">
<path d="M14.1 3.09091H11.4V2.16364C11.4 1.5898 11.1788 1.03947 10.7849 0.633714C10.3911 0.227954 9.85695 0 9.3 0H5.7C5.14305 0 4.6089 0.227954 4.21508 0.633714C3.82125 1.03947 3.6 1.5898 3.6 2.16364V3.09091H0.9C0.661305 3.09091 0.432387 3.1886 0.263604 3.3625C0.0948212 3.5364 0 3.77225 0 4.01818C0 4.26411 0.0948212 4.49997 0.263604 4.67386C0.432387 4.84776 0.661305 4.94545 0.9 4.94545H1.2V15.4545C1.2 15.8644 1.35804 16.2575 1.63934 16.5473C1.92064 16.8372 2.30218 17 2.7 17H12.3C12.6978 17 13.0794 16.8372 13.3607 16.5473C13.642 16.2575 13.8 15.8644 13.8 15.4545V4.94545H14.1C14.3387 4.94545 14.5676 4.84776 14.7364 4.67386C14.9052 4.49997 15 4.26411 15 4.01818C15 3.77225 14.9052 3.5364 14.7364 3.3625C14.5676 3.1886 14.3387 3.09091 14.1 3.09091ZM5.4 2.16364C5.4 2.08166 5.43161 2.00304 5.48787 1.94508C5.54413 1.88711 5.62044 1.85455 5.7 1.85455H9.3C9.37957 1.85455 9.45587 1.88711 9.51213 1.94508C9.56839 2.00304 9.6 2.08166 9.6 2.16364V3.09091H5.4V2.16364ZM12 15.1455H3V4.94545H12V15.1455ZM6.6 7.41818V12.3636C6.6 12.6096 6.50518 12.8454 6.3364 13.0193C6.16761 13.1932 5.93869 13.2909 5.7 13.2909C5.46131 13.2909 5.23239 13.1932 5.0636 13.0193C4.89482 12.8454 4.8 12.6096 4.8 12.3636V7.41818C4.8 7.17225 4.89482 6.9364 5.0636 6.7625C5.23239 6.5886 5.46131 6.49091 5.7 6.49091C5.93869 6.49091 6.16761 6.5886 6.3364 6.7625C6.50518 6.9364 6.6 7.17225 6.6 7.41818ZM10.2 7.41818V12.3636C10.2 12.6096 10.1052 12.8454 9.9364 13.0193C9.76761 13.1932 9.5387 13.2909 9.3 13.2909C9.06131 13.2909 8.83239 13.1932 8.6636 13.0193C8.49482 12.8454 8.4 12.6096 8.4 12.3636V7.41818C8.4 7.17225 8.49482 6.9364 8.6636 6.7625C8.83239 6.5886 9.06131 6.49091 9.3 6.49091C9.5387 6.49091 9.76761 6.5886 9.9364 6.7625C10.1052 6.9364 10.2 7.17225 10.2 7.41818Z" fill="#DA3F3F"/>
</svg>
