<svg width="32" height="30" viewBox="0 0 32 30" fill="none" xmlns="http://www.w3.org/2000/svg">
<path d="M30.6459 16.5837V9.45866C30.6459 7.35903 29.8118 5.34539 28.3272 3.86073C26.8425 2.37607 24.8289 1.54199 22.7292 1.54199H9.27091C7.17128 1.54199 5.15765 2.37607 3.67299 3.86073C2.18832 5.34539 1.35425 7.35903 1.35425 9.45866V20.542C1.35425 21.5816 1.55902 22.6111 1.95687 23.5716C2.35472 24.5321 2.93786 25.4048 3.67299 26.1399C5.15765 27.6246 7.17128 28.4587 9.27091 28.4587H19.1826" stroke="#868686" stroke-width="1.5" stroke-linecap="round" stroke-linejoin="round"/>
<path d="M1.76587 22.9166L6.1042 17.8499C6.67395 17.2841 7.42171 16.9324 8.22093 16.8545C9.02015 16.7766 9.82174 16.9772 10.49 17.4224C11.1583 17.8676 11.9599 18.0682 12.7591 17.9903C13.5584 17.9124 14.3061 17.5608 14.8759 16.9949L18.565 13.3058C19.6251 12.2421 21.0285 11.5897 22.525 11.465C24.0215 11.3403 25.5136 11.7514 26.735 12.6249L30.6459 15.6491M9.68254 12.1024C10.0277 12.1003 10.3691 12.0303 10.6871 11.8963C11.0052 11.7623 11.2938 11.5669 11.5364 11.3214C11.779 11.0759 11.9709 10.785 12.101 10.4653C12.2312 10.1456 12.2971 9.80341 12.295 9.45825C12.293 9.11309 12.2229 8.77172 12.0889 8.45364C11.9549 8.13555 11.7596 7.84697 11.514 7.60438C11.2685 7.36178 10.9776 7.16993 10.6579 7.03976C10.3382 6.9096 9.99603 6.84367 9.65087 6.84575C8.95379 6.84995 8.28693 7.13089 7.79699 7.62677C7.30706 8.12265 7.03417 8.79284 7.03837 9.48992C7.04257 10.187 7.32351 10.8539 7.81939 11.3438C8.31526 11.8337 8.98546 12.1066 9.68254 12.1024Z" stroke="#868686" stroke-width="1.5" stroke-linecap="round" stroke-linejoin="round"/>
<path d="M26.6194 19.75V27.6667" stroke="#868686" stroke-width="1.5" stroke-miterlimit="10" stroke-linecap="round"/>
<path d="M30.2502 23.0828L27.1358 19.9684C27.0681 19.9004 26.9877 19.8465 26.8991 19.8097C26.8105 19.7729 26.7155 19.7539 26.6196 19.7539C26.5237 19.7539 26.4287 19.7729 26.3401 19.8097C26.2515 19.8465 26.1711 19.9004 26.1034 19.9684L22.989 23.0828" stroke="#868686" stroke-width="1.5" stroke-linecap="round" stroke-linejoin="round"/>
</svg>
